<svg width="466" height="130" viewBox="0 0 466 130" fill="none" xmlns="http://www.w3.org/2000/svg">
<path d="M464.9 44.6C463.1 23.2 447 4.9 426.7 1.3C421.9 0.4 417.1 0 412.2 0C407.4 0 402.5 0.4 397.7 1.3C392.3 2.3 387.3 4.2 382.7 7C373.3 12.7 361.4 12.7 352 7C347.4 4.2 342.4 2.2 337 1.3C332.2 0.4 327.4 0 322.5 0C317.6 0 312.8 0.4 308 1.3C302.6 2.3 297.6 4.2 293 7C283.6 12.7 271.7 12.7 262.3 7C257.7 4.2 252.7 2.2 247.3 1.3C242.5 0.4 237.7 0 232.8 0C228 0 223.1 0.4 218.3 1.3C212.9 2.3 207.9 4.2 203.3 7C193.9 12.7 182 12.7 172.6 7C168 4.2 163 2.2 157.6 1.3C152.8 0.4 148 0 143.1 0C138.2 0 133.4 0.4 128.6 1.3C123.2 2.3 118.2 4.2 113.6 7C104.2 12.7 92.3004 12.7 82.9004 7C78.3004 4.2 73.3004 2.2 67.9004 1.3C63.1004 0.4 58.3004 0 53.4004 0C48.5004 0 43.7004 0.4 38.9004 1.3C18.6004 5 2.50039 23.2 0.700391 44.6C-0.199609 55.2 -0.199609 74 0.700391 84.6C2.50039 106 18.6004 124.3 38.9004 127.9C43.7004 128.8 48.5004 129.2 53.4004 129.2C58.3004 129.2 63.1004 128.8 67.9004 127.9C73.3004 126.9 78.3004 125 82.9004 122.2C92.3004 116.5 104.2 116.5 113.6 122.2C118.2 125 123.2 127 128.6 127.9C133.4 128.8 138.2 129.2 143.1 129.2C148 129.2 152.8 128.8 157.6 127.9C163 126.9 168 125 172.6 122.2C182 116.5 193.9 116.5 203.3 122.2C207.9 125 212.9 127 218.3 127.9C223.1 128.8 227.9 129.2 232.8 129.2C237.6 129.2 242.5 128.8 247.3 127.9C252.7 126.9 257.7 125 262.3 122.2C271.7 116.5 283.6 116.5 293 122.2C297.6 125 302.6 127 308 127.9C312.8 128.8 317.6 129.2 322.5 129.2C327.4 129.2 332.2 128.8 337 127.9C342.4 126.9 347.4 125 352 122.2C361.4 116.5 373.3 116.5 382.7 122.2C387.3 125 392.3 127 397.7 127.9C402.5 128.8 407.3 129.2 412.2 129.2C417 129.2 421.9 128.8 426.7 127.9C447 124.2 463.1 106 464.9 84.6C465.9 74.1 465.9 55.2 464.9 44.6Z" fill="#FEF6EF"/>
</svg>
