<svg xmlns="http://www.w3.org/2000/svg" width="18.146" height="19.477" viewBox="0 0 18.146 19.477">
  <path id="STH_Icons_RGB_SteamGrey_organic" d="M93.538,72.838a2.163,2.163,0,0,0-2.911,0C88.054,75.206,83,80.493,83,85.464a6.542,6.542,0,0,0,2.658,5.459,5.594,5.594,0,0,0,3.921.732,1.915,1.915,0,0,0,1.694-1.88v-.434a.8.8,0,0,0-.43-.714l-4.071-2.232a.755.755,0,0,1-.3-1.048.811.811,0,0,1,1.086-.289l2.583,1.419a.749.749,0,0,0,1.123-.633v-1.3a.829.829,0,0,0-.412-.7L88.175,82.3a.761.761,0,0,1-.281-1.057.811.811,0,0,1,1.095-.271l1.142.651A.756.756,0,0,0,91.273,81V77.79a.8.8,0,0,1,1.591.027V81a.753.753,0,0,0,1.142.624l1.151-.66a.813.813,0,0,1,1.095.271.755.755,0,0,1-.281,1.057l-2.7,1.545a.818.818,0,0,0-.412.7v1.311a.75.75,0,0,0,1.123.633l2.592-1.419a.814.814,0,0,1,1.114.334.768.768,0,0,1-.346,1.012l-4.052,2.232a.82.82,0,0,0-.431.714v.452a1.912,1.912,0,0,0,1.685,1.871,5.748,5.748,0,0,0,4-.714,6.574,6.574,0,0,0,2.6-5.5C101.156,80.493,96.1,75.206,93.538,72.838Z" transform="translate(-83 -72.275)" fill="#2b2a28"/>
</svg>
