<svg xmlns="http://www.w3.org/2000/svg" width="21.7" height="21.761" viewBox="0 0 21.7 21.761">
  <g id="search" transform="translate(0.35 0.35)">
    <path id="Path_1" data-name="Path 1" d="M20.807,19.858l-5.422-5.335a8.576,8.576,0,0,0,2.292-5.828A8.767,8.767,0,0,0,8.841,0,8.766,8.766,0,0,0,.006,8.695,8.766,8.766,0,0,0,8.841,17.39,8.886,8.886,0,0,0,14.4,15.448L19.846,20.8a.687.687,0,0,0,.961,0A.662.662,0,0,0,20.807,19.858ZM8.841,16.052A7.417,7.417,0,0,1,1.365,8.695,7.417,7.417,0,0,1,8.841,1.338a7.417,7.417,0,0,1,7.476,7.357A7.417,7.417,0,0,1,8.841,16.052Z" transform="translate(-0.006)" fill="#2b2a28" stroke="#2b2a28" stroke-width="0.7"/>
  </g>
</svg>
